<svg width="16" height="16" viewBox="0 0 480 384" fill="none" xmlns="http://www.w3.org/2000/svg"><path d="M480 45.5C461.995 53.3235 442.944 58.4778 423.45 60.8C443.937 48.8038 459.343 29.7456 466.78 7.19998C447.411 18.5259 426.256 26.4727 404.22 30.7C394.941 20.9753 383.781 13.239 371.419 7.96143C359.057 2.68384 345.751 -0.0248564 332.31 -1.37613e-05C277.89 -1.37613e-05 233.85 43.4 233.85 96.9C233.811 104.342 234.664 111.761 236.39 119C197.367 117.171 159.155 107.216 124.2 89.7725C89.2444 72.3293 58.3149 47.7816 33.39 17.7C24.6457 32.4412 20.0213 49.2604 20 66.4C20 100 37.53 129.7 64 147.1C48.3173 146.728 32.9559 142.577 19.22 135V136.2C19.22 183.2 53.22 222.3 98.22 231.2C89.7578 233.456 81.0377 234.599 72.28 234.6C66.0658 234.611 59.8657 234.008 53.77 232.8C66.28 271.3 102.69 299.3 145.82 300.1C110.774 327.109 67.7462 341.707 23.5 341.6C15.6462 341.588 7.79966 341.121 0 340.2C45.0118 368.942 97.3345 384.145 150.74 384C332.1 384 431.18 236.3 431.18 108.2C431.18 104 431.07 99.8 430.87 95.7C450.101 82.0206 466.738 65.0211 480 45.5V45.5Z" fill="#FFF"></path></svg>