<?xml version="1.0" standalone="no"?>
<!DOCTYPE svg PUBLIC "-//W3C//DTD SVG 20010904//EN"
 "http://www.w3.org/TR/2001/REC-SVG-20010904/DTD/svg10.dtd">
<svg version="1.0" xmlns="http://www.w3.org/2000/svg"
 width="146.000000pt" height="89.000000pt" viewBox="0 0 146.000000 89.000000"
 preserveAspectRatio="xMidYMid meet">

<g transform="translate(0.000000,89.000000) scale(0.100000,-0.100000)"
fill="#40386d" stroke="none">
<path d="M553 780 c-56 -12 -117 -44 -142 -76 -19 -24 -20 -38 -19 -161 l1
-136 34 -33 c34 -35 112 -64 167 -64 29 1 30 1 12 15 -11 8 -31 15 -45 15 -39
1 -105 34 -129 65 -33 41 -27 50 13 19 52 -39 191 -68 170 -35 -2 5 -24 11
-47 15 -63 10 -126 44 -144 77 -13 26 -4 43 11 19 22 -35 183 -77 199 -52 4 7
-8 13 -31 17 -107 17 -160 42 -184 86 -8 17 -1 15 45 -11 44 -25 71 -33 132
-37 60 -5 76 -3 72 7 -2 7 -25 14 -56 16 -28 2 -71 8 -94 14 -45 13 -108 67
-108 94 0 36 31 75 77 97 64 32 208 34 263 5 63 -33 80 -55 80 -103 0 -43 12
-57 24 -27 41 106 -136 209 -301 174z"/>
<path d="M587 739 c-27 -11 -45 -48 -32 -69 4 -6 18 -15 31 -20 17 -7 24 -17
24 -35 0 -27 -17 -34 -26 -10 -9 21 -36 19 -32 -2 2 -10 20 -26 40 -36 34 -17
39 -17 67 -2 41 21 44 70 6 87 -18 8 -25 19 -25 39 0 21 4 27 15 23 8 -4 15
-12 15 -20 0 -8 5 -14 10 -14 14 0 12 36 -3 48 -20 17 -60 22 -90 11z m23 -44
c0 -28 -17 -34 -27 -9 -3 9 0 20 8 25 19 12 19 12 19 -16z m55 -85 c0 -7 -6
-15 -12 -17 -8 -3 -13 4 -13 17 0 13 5 20 13 18 6 -3 12 -11 12 -18z"/>
<path d="M787 566 c-150 -54 -198 -254 -89 -369 110 -116 301 -86 368 57 31
66 31 126 0 191 -28 60 -56 87 -116 114 -52 24 -109 26 -163 7z m149 -55 c192
-87 87 -386 -115 -331 -117 31 -169 159 -107 264 45 78 137 105 222 67z"/>
<path d="M780 488 c-57 -39 -75 -72 -75 -138 0 -90 53 -149 143 -158 167 -16
242 201 102 295 -46 32 -124 32 -170 1z m141 -50 c12 -17 11 -38 0 -38 -5 0
-11 10 -13 22 -2 13 -11 24 -20 26 -15 3 -18 -4 -18 -42 0 -40 4 -48 25 -58
44 -20 46 -90 2 -104 -12 -4 -25 -12 -29 -18 -6 -8 -8 -7 -8 2 0 6 -8 12 -18
12 -24 0 -42 19 -42 45 1 20 1 20 12 0 27 -48 48 -40 48 20 0 37 -3 44 -25 49
-43 11 -48 106 -5 106 10 0 21 4 25 9 6 11 54 -11 66 -31z"/>
<path d="M822 438 c-15 -15 -15 -41 0 -56 24 -24 38 -13 38 28 0 41 -14 52
-38 28z"/>
<path d="M870 302 c0 -45 8 -56 27 -41 16 14 17 51 1 67 -20 20 -28 13 -28
-26z"/>
</g>
</svg>
