<?xml version="1.0" standalone="no"?>
<!DOCTYPE svg PUBLIC "-//W3C//DTD SVG 20010904//EN"
 "http://www.w3.org/TR/2001/REC-SVG-20010904/DTD/svg10.dtd">
<svg version="1.0" xmlns="http://www.w3.org/2000/svg"
 width="146.000000pt" height="94.000000pt" viewBox="0 0 146.000000 94.000000"
 preserveAspectRatio="xMidYMid meet">

<g transform="translate(0.000000,94.000000) scale(0.100000,-0.100000)"
fill="#40386d" stroke="none">
<path d="M667 756 c-22 -8 -50 -25 -64 -38 -30 -27 -62 -93 -63 -127 0 -45 24
-105 56 -136 l32 -32 -32 -11 c-17 -6 -49 -29 -71 -51 -34 -33 -43 -37 -62
-28 -22 10 -22 10 -3 34 81 104 -38 254 -158 199 -74 -34 -101 -113 -64 -184
l20 -39 -43 -31 c-66 -47 -116 -162 -82 -190 11 -9 158 -12 603 -10 l589 3 3
25 c9 60 -46 153 -110 186 -29 15 -29 16 -12 35 27 30 30 116 4 157 -37 59
-126 77 -183 37 -57 -40 -73 -123 -37 -182 19 -31 19 -33 1 -42 -14 -8 -25 -3
-50 23 -18 19 -51 42 -72 52 l-40 17 30 31 c37 39 51 75 51 132 0 124 -127
213 -243 170z m147 -66 c82 -73 66 -190 -33 -234 -52 -24 -102 -15 -148 28
-29 27 -36 41 -40 82 -9 92 47 154 139 154 38 0 54 -6 82 -30z m-399 -185 c54
-53 16 -145 -59 -145 -82 0 -121 96 -61 147 36 31 88 31 120 -2z m746 -4 c32
-33 36 -58 14 -100 -16 -33 -33 -41 -80 -41 -39 0 -85 46 -85 87 0 36 51 83
90 83 22 0 41 -9 61 -29z m-307 -139 c65 -36 111 -97 130 -174 l6 -28 -260 0
c-295 0 -279 -6 -236 85 21 45 47 76 99 115 31 23 109 40 162 34 27 -3 72 -17
99 -32z m-425 -63 c18 -6 30 -16 27 -23 -3 -6 -12 -35 -21 -63 l-16 -53 -125
0 c-87 0 -124 3 -124 12 0 6 11 30 25 53 42 73 145 105 234 74z m761 -11 c46
-24 90 -77 90 -109 0 -18 -10 -19 -123 -19 l-122 0 -12 48 c-6 26 -14 54 -18
63 -16 40 116 52 185 17z"/>
</g>
</svg>
