<?xml version="1.0" standalone="no"?>
<!DOCTYPE svg PUBLIC "-//W3C//DTD SVG 20010904//EN"
 "http://www.w3.org/TR/2001/REC-SVG-20010904/DTD/svg10.dtd">
<svg version="1.0" xmlns="http://www.w3.org/2000/svg"
 width="110.000000pt" height="80.000000pt" viewBox="0 0 110.000000 80.000000"
 preserveAspectRatio="xMidYMid meet">

<g transform="translate(0.000000,80.000000) scale(0.100000,-0.100000)"
fill="#40386d" stroke="none">
<path d="M274 651 c-45 -28 -72 -67 -90 -130 -8 -31 -19 -64 -24 -73 -6 -10
-10 -34 -10 -53 0 -32 10 -46 93 -127 50 -50 102 -97 115 -105 12 -9 22 -21
22 -27 0 -29 48 -58 107 -63 79 -7 226 19 269 49 36 24 76 77 89 117 4 13 20
44 36 68 77 123 47 292 -63 349 -37 19 -132 18 -174 -2 -19 -9 -48 -32 -64
-52 l-29 -35 -27 32 c-14 17 -44 41 -65 51 -51 27 -143 27 -185 1z m336 -197
c0 -3 -16 -12 -35 -20 -19 -8 -35 -18 -35 -22 0 -4 33 -7 74 -7 116 0 119 -27
6 -43 l-65 -10 75 -1 c91 -1 84 -20 -12 -32 l-63 -7 68 1 c37 1 67 -1 67 -5 0
-11 -63 -21 -125 -18 -33 1 -72 2 -87 3 -26 0 -28 3 -27 36 3 72 12 95 49 113
32 17 110 25 110 12z m-373 -29 c31 -8 90 -15 130 -15 l73 0 0 -70 0 -70 -45
0 c-140 0 -250 69 -231 146 7 28 1 28 73 9z m361 -171 c21 -14 23 -21 20 -87
l-3 -72 -95 -1 c-64 -1 -84 1 -60 6 42 9 30 16 -30 19 -16 0 -30 5 -30 9 0 5
25 7 55 4 35 -3 55 -1 55 6 0 6 -24 12 -55 14 -30 2 -54 8 -53 13 2 6 25 9 54
7 30 -2 55 1 58 7 5 7 -12 11 -53 11 -55 0 -83 12 -66 28 4 4 38 7 76 7 38 0
69 3 69 7 0 4 -16 14 -35 22 -19 8 -35 18 -35 22 0 11 104 -6 128 -22z m52 16
c-20 -13 -40 -13 -40 0 0 6 12 10 28 10 21 0 24 -2 12 -10z m180 -25 c0 -3 -9
-23 -20 -45 -22 -43 -87 -88 -142 -96 l-33 -6 -1 66 -1 66 56 1 c31 1 70 5 86
9 39 10 55 11 55 5z"/>
</g>
</svg>
