<?xml version="1.0" standalone="no"?>
<!DOCTYPE svg PUBLIC "-//W3C//DTD SVG 20010904//EN"
 "http://www.w3.org/TR/2001/REC-SVG-20010904/DTD/svg10.dtd">
<svg version="1.0" xmlns="http://www.w3.org/2000/svg"
 width="128.000000pt" height="128.000000pt" viewBox="0 0 128.000000 128.000000" preserveAspectRatio="xMidYMid meet">
    <g transform="translate(0.000000,128.000000) scale(0.100000,-0.100000)" fill="#ffff" stroke="none">
        <path d="M254 1180 c-93 -19 -178 -78 -213 -149 -67 -133 -47 -285 54 -418 50
        -67 526 -523 545 -523 18 0 459 419 525 500 119 143 145 300 74 441 -58 117
        -235 185 -374 144 -64 -18 -83 -29 -167 -93 l-58 -43 -57 43 c-84 63 -103 74
        -163 92 -57 17 -101 19 -166 6z m191 -115 c28 -14 81 -52 118 -85 38 -33 72
        -60 77 -60 5 0 39 27 77 60 127 113 235 142 344 92 88 -39 122 -96 122 -207 1
        -121 -21 -155 -278 -408 -121 -120 -230 -225 -242 -234 -21 -14 -25 -14 -45 0
        -13 9 -122 114 -243 234 -257 253 -279 287 -278 408 1 129 56 200 176 225 58
        12 113 4 172 -25z"/>
    </g>
</svg>
